<?xml version="1.0" encoding="utf-8" ?><svg xmlns="http://www.w3.org/2000/svg" xmlns:xlink="http://www.w3.org/1999/xlink" width="500" height="500" viewBox="0 0 500 500"><path fill="#024377" d="M246.99 87.2993C249.033 87.2057 253.014 86.9232 254.777 87.5745C259.787 89.4248 265.004 91.8698 269.915 94.0237L296.916 105.755L320.831 116.111C325.391 118.066 330.102 119.914 334.511 122.182C336.585 123.25 337.649 124.248 338.305 126.512C339.166 129.488 337.492 132.058 334.797 133.413C330.185 135.733 325.295 137.696 320.548 139.821L291.933 152.682L267.595 163.768C263.927 165.408 257.944 168.316 254.193 169.169C252.919 169.431 251.619 169.552 250.318 169.529C244.902 169.384 238.447 165.952 233.471 163.753L213.25 154.773C202.836 150.272 192.454 145.695 182.105 141.045C177.542 139.018 172.912 137.108 168.41 134.945C163.266 132.474 161.918 131.772 162.255 125.849C163.292 124.333 164.092 123.242 165.774 122.431C170.144 120.326 174.771 118.441 179.222 116.503L208.707 103.746L233.684 92.9067C237.274 91.3303 243.571 88.1263 246.99 87.2993Z"/><path fill="#024377" d="M162.247 214.935L213.434 237.617L231.161 245.46C237.068 248.07 243.661 251.393 250.015 252.458C252.144 252.622 255.7 251.835 257.617 251.017C281.013 241.039 304.069 230.134 327.537 220.368C329.084 219.724 332.187 219.961 333.86 220.085C339.902 224.126 340.842 232.446 335.002 236.933C331.21 238.999 325.306 241.42 321.247 243.267L290.205 257.164L269.107 266.665C265.216 268.431 261.14 270.352 257.178 271.922C248.126 275.507 238.198 269.183 229.739 265.442L198.617 251.538L178.74 242.688C174.253 240.722 165.974 237.931 163.269 234.158C161.877 232.216 161.665 217.23 162.247 214.935Z"/><path fill="#024377" d="M161.985 180.492C163.385 180.98 166.883 182.731 168.384 183.424C172.56 185.342 176.75 187.229 180.953 189.086C197.496 196.376 214.488 203.768 231.03 211.008C251.848 220.12 248.799 220.135 268.796 211.491L308.411 194.392C313.3 192.276 318.14 190.088 322.999 187.91C325.26 186.897 329.395 185.086 331.855 185.545C339.822 187.032 341.457 198.247 334.623 202.596C331.739 204.327 325.908 206.722 322.617 208.196L302.806 217.158C294.482 220.841 286.187 224.591 277.923 228.407C270.378 231.899 260.917 236.852 253.085 238.794C248.615 239.903 237.03 234.206 232.651 232.261L211.215 222.657L186.931 211.895C180.439 209.057 169.884 204.873 164.209 200.894C160.978 198.629 162.351 185.445 161.985 180.492Z"/><path fill="#024377" d="M162.058 146.144C163.383 146.926 166.655 148.302 168.168 148.983C172.339 150.866 176.525 152.718 180.725 154.537C198.463 162.27 216.168 170.169 233.906 177.908C237.623 179.53 242.853 182.101 246.739 182.866C249.724 183.473 252.809 183.379 255.752 182.592C259.385 181.61 271.045 176.184 274.917 174.471L312.761 157.698C321.286 153.905 338.108 143.547 338.813 160.562C338.954 163.954 337.405 166.128 334.774 167.979C330.371 170.383 322.835 173.478 318.081 175.579L290.059 188.042C284.059 190.726 278.083 193.464 272.132 196.256C267.413 198.498 262.916 200.628 258.095 202.63C248.096 206.783 240.182 201.108 231.233 197.204C220.358 192.488 209.526 187.674 198.737 182.763L177.061 173.215C173.46 171.623 166.2 168.897 163.941 166.264C161.258 163.136 161.885 150.4 162.058 146.144Z"/><path fill="#030708" d="M223.889 301.853C234.304 301.524 244.167 304.578 249.028 314.661C250.564 317.847 250.788 320.575 251.083 324.028C246.514 324.066 241.945 324.062 237.376 324.017C235.872 318.848 234.793 316.118 229.19 314.348C223.042 312.333 214.34 315.928 214.79 323.369C215.083 328.229 218.859 330.028 222.874 331.387C230.951 334.121 241.032 334.728 247.619 340.621C255.311 347.505 254.373 361.953 247.327 369.002C241.152 375.276 233.35 377.515 224.858 377.749C211.275 377.565 199.383 371.184 196.838 356.878C196.693 356.065 196.758 355.574 197.239 354.938C198.839 354.59 209.562 354.801 211.847 354.815C212.511 356.43 213.257 358.202 214.192 359.707C219.155 367.824 238.7 366.595 237.814 354.863C237.495 349.538 231.142 348.057 226.861 346.975C217.692 344.658 206.487 343.297 201.695 333.893C200.335 331.222 200.176 329.16 199.919 326.258C198.57 311.017 209.571 302.498 223.889 301.853Z"/><path fill="#030708" d="M103.321 303.472C105.827 303.946 116.697 303.95 119.258 303.354C117.123 310.587 113.505 320.187 110.892 327.438C109.811 331.04 108.245 335.026 106.981 338.632C104.443 345.937 101.868 353.229 99.2571 360.509C98.0411 363.908 95.0139 373.376 93.6365 375.764C91.7438 376.616 78.083 376.31 75.5398 375.99C67.0857 351.941 58.7685 327.845 50.5884 303.701C55.3864 303.799 61.2268 303.852 65.9839 303.662L66.3135 303.672C66.4614 303.785 66.6413 303.865 66.7571 304.01C66.9516 304.254 84.2281 356.33 84.9471 359.879C85.8751 356.039 89.0914 347.103 90.4614 342.891L103.321 303.472Z"/><path fill="#030708" d="M400.047 301.713C403.996 302.084 410.672 302.048 414.659 301.824C414.425 305.651 414.55 310.591 414.552 314.487L414.589 335.19C414.61 338.354 414.749 341.859 414.607 344.975C415.977 343.78 417.569 341.362 418.744 340.329C421.12 338.24 432.094 323.836 434.044 323.409C436.541 322.862 445.996 323.34 449.002 323.215C444.824 329.222 437.611 335.581 432.849 341.345C431.666 342.777 430.657 343.634 429.702 345.327L443.214 364.963C444.954 367.62 448.922 373.78 450.853 375.947C445.765 376.257 438.697 376.469 433.667 376.081C428.934 369.123 424.439 361.953 419.635 354.994C418.648 356.561 415.904 359.191 414.484 360.744C414.753 365.704 414.418 371.116 414.618 376.208C409.708 376.175 404.798 376.208 399.888 376.307L399.907 328.413C399.904 320.816 399.55 309.074 400.047 301.713Z"/><path fill="#030708" d="M316.974 322.354C323.413 321.843 331.501 323.257 336.212 328.034C338.282 330.168 339.735 332.823 340.415 335.717C341.378 339.735 341.083 348.073 341.079 352.517L341.054 376.268C336.764 376.135 331.937 376.249 327.606 376.255C327.528 374.221 327.486 372.91 327.647 370.897C325.998 372.439 323.542 374.923 321.511 375.773C312.049 379.735 299.967 378.165 295.51 367.938C293.404 362.534 293.773 355.687 298.06 351.47C305.195 344.449 318.455 344.966 327.663 344.805C327.598 340.685 327.339 336.838 323.427 334.453C321.213 333.12 318.555 332.739 316.057 333.396C312.394 334.376 310.722 336.828 309.042 339.862C306.673 339.839 298.628 340.01 296.803 339.664C296.469 339.397 296.188 339.266 296.273 338.75C298.203 327.061 307.048 323.28 316.974 322.354ZM308.008 360.644C309.092 365.768 311.363 366.302 315.955 367.815C324.852 367.868 326.852 360.467 327.845 353.419C325.412 353.203 322.888 353.072 320.454 353.354C314.626 354.025 309.501 353.766 308.008 360.644Z"/><path fill="#030708" d="M170.54 322.335C179.035 322.246 187.62 325.748 192.044 333.264C193.167 335.173 194.667 338.619 194.532 340.837C193.147 341.549 183.065 341.255 180.764 341.196C179.658 339.331 178.233 336.334 176.183 335.498C154.609 326.693 152.347 369.703 174.44 365.404C177.617 364.786 179.76 361.094 181.126 358.451L189.813 358.472C190.833 358.487 193.675 358.362 194.332 358.803C195.144 361.107 191.575 367.142 190.059 369.027C186.048 373.935 180.239 377.031 173.928 377.625C158.979 379.122 146.368 369.926 144.987 354.591C143.335 336.25 151.528 323.769 170.54 322.335Z"/><path fill="#030708" d="M371.499 322.353C378.94 321.984 387.128 324.734 391.69 330.846C394.164 334.162 395.119 337.159 396.173 341.054C392.125 341.41 386.42 341.267 382.227 341.308C381.091 339.28 379.455 336.239 377.299 335.344C371.603 332.979 365.276 334.78 362.636 340.48C359.025 348.275 359.43 360.536 368.136 364.64C370.766 365.88 373.989 366.116 376.692 365.059C379.908 363.825 381.016 361.32 382.331 358.423C384.791 358.491 387.46 358.443 389.938 358.445L396.042 358.528C395.895 359.145 395.732 359.779 395.593 360.396C394.88 363.537 393.446 366.469 391.405 368.962C387.431 373.929 381.606 377.065 375.272 377.648C368.138 378.367 360.873 376.524 355.253 371.911C344.202 362.839 343.538 342.127 352.423 331.407C357.501 325.278 363.783 323.06 371.499 322.353Z"/><path fill="#030708" d="M264.666 310.782L278.448 310.773C278.051 314.02 278.264 319.776 278.348 323.207L290.286 323.211C290.211 327.137 290.174 331.063 290.174 334.989L278.372 334.963C278.138 339.959 278.193 345.033 278.196 350.017C278.203 360.464 276.566 367.492 290.332 364.819C290.108 367.963 290.19 372.339 290.295 375.502L290.049 375.871C287.965 377.049 284.107 376.998 281.825 377.062C274.291 377.304 266.566 375.03 264.914 366.594C264.103 362.457 264.341 357.743 264.34 353.501L264.394 334.959C261.216 334.946 258.176 334.943 255 334.773C255.449 331.609 254.739 325.891 255.612 324.159C257.24 322.638 262.062 323.141 264.486 323.173C264.439 321.37 263.964 311.867 264.666 310.782Z"/><path fill="#030708" d="M126.381 323.348C127.579 323.097 136.52 323.451 138.493 323.475C138.583 329.569 138.892 374.787 138.333 375.915C137.501 376.373 136.425 376.214 135.437 376.188C131.696 376.255 127.953 376.246 124.211 376.161C124.01 364.969 124.19 353.491 124.085 342.274C124.049 338.456 123.852 326.9 124.399 323.757C125.169 323.246 125.294 323.415 126.381 323.348Z"/><path fill="#030708" d="M130.063 301.142C134.562 300.375 138.834 303.392 139.616 307.888C140.398 312.385 137.394 316.666 132.9 317.462C128.386 318.261 124.082 315.241 123.297 310.725C122.512 306.208 125.545 301.913 130.063 301.142Z"/></svg>